<svg class="logo" xmlns="http://www.w3.org/2000/svg" viewBox="0 0 155 55" alt="Republic Bank &amp; Trust" width="155"  height="55" >
                  <g id="logo"><path d="M43.4 20.3h-.2c-1.3 1.6-3 1.9-4.8 1.9-1.2 0-2.4-.1-3.5-.5v-6.4H36c1.2 0 2.8-.1 3.2 1.2h.2v-4.8h-.2c-.3.1-.8.2-1.2.2h-3.1V6.4H36c1.6 0 3.5-.2 4.4 1.4h.1V2.9h-.1c-.4.1-.9.1-1.4.1H27.4v.1c1.6 1 1.4 3 1.4 4.7v12.7c0 1.6.2 3.3-1 4.4-1.1-1.1-2-2.5-2.7-3.9l-3.9-6.8c2.2-1 3.9-2.8 3.9-5.4 0-2.3-1-4.1-2.9-5.2-1.6-.6-3-.6-4.6-.6H7.8v.1c1.6 1.1 1.4 3 1.4 4.8v12.6c0 1.8.2 3.7-1.4 4.8v.1h8.9v-.1c-1.6-1.1-1.4-3-1.4-4.8v-4.7l3.8 7.4c1.2 2.1 2.2 2.4 4.4 2.3l4.2-.1H42l1.4-5.1zM15.3 14V6.3h.3c.7 0 1.4.1 1.9.5.9.6 1.3 1.8 1.3 2.9.1 2.1-1.4 3.9-3.5 4.3zm35.4 6.5c0 1.9 0 3.5 1.5 4.8v.1h-8.8v-.1c1.6-1.1 1.4-3 1.4-4.8V7.9c0-1.8.2-3.7-1.4-4.8V3h7.8c1.9 0 4.3 0 5.9.8 2 1 3.1 3 3.1 5.3 0 4.8-4 6.7-8.1 6.7-.4 0-.8 0-1.2-.1 2.1-.9 3.2-2.7 3.2-5 0-2.4-.8-4.3-3.4-4.4v14.2zm23 2.1c-1.3 1.9-3.3 3.2-5.8 3.2-1.8 0-3.5-.6-4.8-1.9-1.5-1.6-1.6-3.2-1.6-5.3V7.9c0-1.8.2-3.7-1.4-4.8V3H69v.1c-1.6 1.1-1.4 3-1.4 4.8v9.3c0 1.3-.1 2.6.7 3.7.5.7 1.3 1.1 2.2 1.1 3 0 3.2-3.6 3.2-5.9V7.9c0-1.8.2-3.7-1.4-4.8V3h8.8v.1c-1.6 1.1-1.4 3-1.4 4.8v12.6c0 1.8-.2 3.7 1.4 4.8v.1h-7.5v-2.8zM92.6 3c1.8 0 3.2 0 4.6 1.1 1.4 1.1 2.2 2.4 2.2 4.2 0 2.3-1.5 3.6-3.5 4.3 2.9.4 4.8 2.9 4.8 5.8 0 2.1-.8 3.9-2.4 5.3-1.8 1.6-3.5 1.6-5.9 1.6h-9.7v-.1c1.6-1.1 1.4-3 1.4-4.8V7.9c0-1.8.2-3.7-1.4-4.7V3h9.9zm-2.3 8.6c.2.1.4.1.6.1 1.6 0 2.4-1.5 2.4-2.9 0-1.3-.7-2.6-2.1-2.6-.3 0-.6.1-1 .2v5.2zm0 10.2c.5.3.9.4 1.5.4 2.2 0 3-1.8 3-3.8 0-2.6-1.2-3.7-3.7-3.7h-.8v7.1zm18.4-.2c1.1.5 2.3.6 3.5.6 1.8 0 3.2-.4 4.7-1.5l-1.3 4.8h-14.4v-.1c1.6-1.1 1.4-3 1.4-4.7V7.9c0-1.8.2-3.7-1.4-4.8V3h8.9v.1c-1.6 1.1-1.4 3-1.4 4.8v13.7z" fill="#002776"></path><path d="M124.3 20.6c0 1.8-.2 3.7 1.4 4.7v.1h-8.9v-.1c1.6-1.1 1.4-3 1.4-4.7V7.9c0-1.8.2-3.7-1.4-4.8V3h8.9v.1c-1.6 1.1-1.4 3-1.4 4.8v12.7zm19.9-12.9c-1.6-1.1-3.5-1.8-5.5-1.8-4.5 0-5.8 3.7-5.8 7.8 0 4.7 2.2 8.5 7.2 8.5 2.6 0 4.9-1 7.2-2.2l-1.7 5c-2.2.6-4.4.8-6.6.8-3.4 0-6.2-.6-8.9-2.9-2.6-2.2-3.9-5.4-3.9-8.9 0-3.1 1.3-6.4 3.6-8.5 2.5-2.2 6-3 9.2-3l5 .4.2 4.8zM46 29.4c1.8 0 3.2 0 4.6 1.1 1.4 1.1 2.2 2.4 2.2 4.2 0 2.3-1.5 3.6-3.5 4.3 2.9.4 4.8 2.9 4.8 5.8 0 2.1-.8 3.9-2.4 5.3-1.8 1.6-3.5 1.6-5.9 1.6h-9.7v-.1c1.6-1.1 1.4-3 1.4-4.8V34.3c0-1.8.2-3.7-1.4-4.7v-.1H46zM43.6 38c.2.1.4.1.6.1 1.6 0 2.4-1.5 2.4-2.9 0-1.3-.7-2.6-2.1-2.6-.3 0-.6.1-1 .2V38zm0 10.2c.5.3.9.4 1.5.4 2.2 0 3-1.8 3-3.8 0-2.6-1.2-3.7-3.7-3.7h-.8v7.1zm47.2-18.8v.1c1.4 1.4 1.5 2.9 1.5 4.9v8.8L82.1 29.5v-.1h-6.9v.1c1.8 2 1.9 3 1.9 5.6v11.7c0 1.8 0 3.2-1.2 4.5-1.6-1.6-1.8-2.4-2.5-4.4l-6.3-17.5H59v.1c.7.4 1.3 1.1 1.3 2 0 .7-.5 2-.7 2.7L55 47.8c-.6 1.7-1 2.7-2.3 3.9v.1h6.8v-.1c-.6-.5-1.2-1-1.2-1.9 0-.7.4-1.8.6-2.4l.8-2.3h6.6l1.1 3.3c.2.5.3.7.3 1.3 0 1.1-.6 1.6-1.4 2.1v.1H82v-.1c-1.4-1.4-1.5-2.9-1.5-4.9v-9h.1l6.4 8.7c1.6 2.2 2.3 3.3 4.7 4.6 1 .5 2.8 1.4 4 1.4V34.4c0-2 0-3.5 1.5-4.9v-.1h-6.4zM60.7 41.9l2.2-6.7 2.3 6.7h-4.5zm56.8 7.5c.5.9 1.2 1.7 1.9 2.3v.1c-7.7 0-8.2 0-10.3-3.9l-3.4-6.1v5.1c0 1.8-.2 3.7 1.4 4.8v.1h-8.9v-.1c1.6-1.1 1.4-3 1.4-4.8V34.3c0-1.8.2-3.7-1.4-4.8v-.1h8.9v.1c-1.6 1.1-1.4 3-1.4 4.8v5.2l4.1-5.4c.6-.7 1.5-1.7 1.5-2.7 0-.9-.7-1.5-1.3-1.8v-.1h8.1v.1l-7.3 9 6.7 10.8z" fill="#002776"></path></g>
                </svg>