<svg width="235" height="95" xmlns="http://www.w3.org/2000/svg" xmlns:xlink="http://www.w3.org/1999/xlink"><defs><linearGradient x1="21.452%" y1="28.527%" x2="134.121%" y2="98.829%" id="a"><stop stop-color="#EBF095" offset="0%"/><stop stop-color="#6BBF66" offset="100%"/></linearGradient><path id="b" d="M0 23h66v48H0z"/></defs><g fill="none" fill-rule="evenodd"><path fill="#3F4B57" d="M66 23h169v48H66z"/><path d="M81.2 53.5a7 7 0 001.8-.2c.5-.2 1-.5 1.4-1 .4-.4.7-1 .9-1.8.2-.8.3-1.8.3-3.2a11 11 0 00-.3-3.1c-.3-.8-.6-1.4-1-1.8a3 3 0 00-1.4-.8l-1.8-.2h-2v12h2zm0-1.5h-.4v-9.1h.6l1 .1c.3.1.6.4.8.7.2.3.4.7.5 1.3l.1 2.3-.1 2.4a4 4 0 01-.5 1.4c-.2.4-.5.6-.8.7l-1.1.2zm11.3 1.5v-1.6H89v-4.2h3v-1.4h-3V43h3.4l.1-1.5h-5.3v12h5.3zm6.2.1h1.2l1-.5c.4-.3.6-.6.8-1 .3-.5.4-1 .4-1.8 0-.4 0-.8-.2-1a3.8 3.8 0 00-.8-1.7 7 7 0 00-.6-.6l-1-.8c-.2-.2-.5-.5-.6-.8a2 2 0 01-.3-1c0-.6.1-1 .4-1.3.3-.3.6-.4 1-.4a3.8 3.8 0 011.2.2l.6.1v-1.5a5 5 0 00-1.1-.2 4.5 4.5 0 00-1.8 0A2.7 2.7 0 0097 43c-.2.4-.3 1-.3 1.5a3.8 3.8 0 001.3 3l1 .8a17.2 17.2 0 01.8 1l.3.5v1.6l-.4.5-.6.2a3 3 0 01-1.2 0 7.2 7.2 0 01-1.3-.2v1.5a7.2 7.2 0 002 .3zm7.8 0c1 0 1.9-.2 2.4-.7.6-.5.8-1.3.8-2.5v-9H108v9.2c0 .5 0 1-.3 1.2-.2.3-.6.4-1 .4-.6 0-1-.1-1.2-.4-.2-.3-.3-.7-.3-1.2v-9.2h-1.8v9l.2 1.5.6 1c.3.3.6.5 1 .6l1.4.1zm7-.1v-5.1l1-.1.6.6c.2.4.4.8.5 1.5l.6 3h2l-.8-3.2-.5-1.4c-.2-.4-.4-.7-.8-.9.6-.2 1-.6 1.4-1.1.3-.5.5-1.2.5-2 0-.7 0-1.2-.2-1.7-.2-.4-.4-.8-.8-1-.3-.3-.7-.4-1.1-.6l-1.6-.1h-2.6v12h1.8zm0-6.4v-4.3h1.7l.6.4.3.6.1 1-.1 1.2c-.2.3-.3.5-.6.6a2 2 0 01-.8.4h-1.2zm8 6.4V41.4h-1.9v12h1.8zm3.8 0v-5.2a17 17 0 00-.1-2.6l-.2-1.5a88 88 0 001.4 3.9l2.2 5.4h1.6V41.4h-1.8v4.9a22.3 22.3 0 00.1 2.7 67.9 67.9 0 00-.2.2 86.8 86.8 0 00-.9-2.5l-2.2-5.3h-1.7v12h1.8zm7.7 0l.5-2.7h3.1l.5 2.7h2l-3-12.1h-2l-3 12h1.9zm3.3-4.2h-2.5l.7-3.8a33.4 33.4 0 00.6-3.1 37 37 0 01.5 3l.7 4zm4.4 4.2l.5-2.7h3.1l.5 2.7h2l-3-12.1h-2l-3 12h1.9zm3.3-4.2h-2.5l.7-3.8a33.4 33.4 0 00.6-3.1 37 37 0 01.5 3l.7 4zm5.4 4.2v-5.7a74.3 74.3 0 000-3.5 20.3 20.3 0 001 2.6l1.9 4.3 1.9-4.3a40.6 40.6 0 001-2.6l-.1 1.2a24 24 0 000 2.3v5.7h1.9l-.4-12.1H155l-2.7 6.7-2.7-6.7H148l-.4 12h1.8zm10.8.1h1.1l1.1-.5c.4-.3.6-.6.8-1 .3-.5.4-1 .4-1.8 0-.4 0-.8-.2-1a3.8 3.8 0 00-.8-1.7 7 7 0 00-.6-.6l-1-.8c-.2-.2-.5-.5-.6-.8a2 2 0 01-.3-1c0-.6.1-1 .4-1.3.3-.3.6-.4 1-.4a3.8 3.8 0 011.2.2l.6.1v-1.5a5 5 0 00-1.1-.2 4.5 4.5 0 00-1.8 0 2.7 2.7 0 00-1.8 1.6c-.2.4-.3 1-.3 1.5a3.8 3.8 0 001.3 3l1 .8a17.2 17.2 0 01.8 1l.3.5v1.6l-.4.5-.6.2a3 3 0 01-1.2 0 7.2 7.2 0 01-1.3-.2v1.5a7.2 7.2 0 002 .3zm7.7 0a5 5 0 002-.4v-1.5a6.6 6.6 0 01-2 .4c-.2 0-.5 0-.7-.2-.2-.2-.4-.4-.5-.8-.2-.3-.3-.8-.4-1.4a15.3 15.3 0 01.5-6l.6-.8.7-.2h.7a6.6 6.6 0 011 .4v-1.5a2.8 2.8 0 00-1-.3 3.7 3.7 0 00-1.9.1c-.4.2-.8.5-1.2 1-.4.4-.7 1-1 1.8-.2.9-.3 2-.3 3.3 0 1.4.1 2.4.3 3.3.2.8.5 1.4.8 1.8.4.4.7.7 1.2.8.4.2.8.2 1.2.2zm4.8-.1v-5.8h3.2v5.8h1.8V41.4H176v5h-3.2v-5H171v12h1.8zm12.4 0v-1.6h-3.5v-4.2h3v-1.4h-3V43h3.4l.1-1.5h-5.3v12h5.3zm7.6 0a7 7 0 001.8-.2l1.2-.6c.3-.3.5-.7.6-1a5 5 0 000-2.9c0-.3-.2-.6-.5-.8l-.7-.5-.9-.3c.3 0 .5-.2.8-.3a2.2 2.2 0 001-1.3l.2-1.2c0-1-.3-1.8-.8-2.3-.5-.5-1.4-.7-2.7-.7h-2.6v12h2.6zm-.3-6.9h-.5v-3.9h1.5l.6.4.3.5.1.9c0 .7-.1 1.3-.4 1.6-.3.4-.9.5-1.6.5zm.2 5.5h-.7V48h.5c.8 0 1.4.1 1.8.4.4.3.6 1 .6 1.7 0 .9-.2 1.4-.6 1.7-.3.3-.8.4-1.6.4zm6.3 1.4l.5-2.7h3l.6 2.7h2l-3-12.1h-2.1l-3 12h2zm3.3-4.2h-2.6l.8-3.8a33.4 33.4 0 00.5-3.1 37 37 0 01.6 3l.7 4zm5.4 4.2v-5.2a17 17 0 00-.1-2.6l-.2-1.5a88 88 0 001.4 3.9l2.2 5.4h1.6V41.4h-1.8v4.9a22.3 22.3 0 00.1 2.7 67.9 67.9 0 00-.2.2 86.8 86.8 0 00-.9-2.5l-2.2-5.3h-1.7v12h1.8zm8.8 0V41.4h-1.8v12h1.8zm3 .1l2-.1-3.1-6.6 2.9-5.5H219l-2.6 5.6 2.8 6.6z" fill="#FFF" fill-rule="nonzero"/><use fill="url(#a)" xlink:href="#b"/><use fill="#B8DD83" xlink:href="#b"/><path fill="#6BBF66" opacity=".4" d="M6.2 16.2h15.5V79H6.2zm37.3-2h16.3v67.2H43.5z"/><path fill="#6BBF66" opacity=".4" d="M18.3 5.5h8.2v84h-8.2zm13-5.5H38v95h-6.8zm8.9 19.7H52v55.5H40.2z"/><path d="M31.7 37.9c-2 .5-3 1.2-3.8 2.7-.4 1-.5 1.2-.5 2.6 0 3.5 1 4.6 5.9 6.4 2.4 1 3.2 1.8 3 3.3-.3 1.3-1.2 1.9-3.2 1.9-1.2 0-1.9-.1-4.6-.8l-.9-.1c-.2.1-.1 3 .1 3.1.5.4 2.6.8 4.5 1 4.5.1 6.6-.8 7.7-3.1.3-.6.3-1 .3-2.6 0-1.8 0-1.9-.5-2.9-.8-1.6-1.5-2-5.2-3.6L32 44.7c-.7-.7-.8-2.2-.3-3 .7-1.1 3.2-1.4 5.8-.7 2.2.6 2 .7 2-1 0-1 0-1.4-.2-1.6-.6-.4-2-.7-4.3-.8-1.8 0-2.4 0-3.3.3M10 37.8h-.3V52h4v-5.5l.1-5.4.5-.2c.8-.2 3.2.1 4 .5.9.5 1.6 1.5 2 2.7.2.8.3 1.5.3 3.8 0 2.6 0 3-.4 3.7-1 2.5-2 3-6.5 3h-3.3l-.7.1v2.9l.7.1c1.1.2 6.5 0 7.9-.3 4.1-.8 6-3.3 6.3-8.5.2-4-.6-7.2-2.2-8.9-1-.9-2.6-1.6-4.3-2-1.3-.1-7.3-.3-8-.2m33.6 0c-.2 0-.2.3-.2 1.4 0 1.2 0 1.3.3 1.4h4c4 .1 4.5.2 5 1.1a4 4 0 010 3c-.5.8-1.2 1.2-2.4 1.4l-1 .2v1c-.1 1.3 0 1.4 1.2 1.5 2.1.2 3.1 1.2 3.1 3.1 0 1.2-.3 1.9-1 2.4-.7.4-.8.4-3 .4h-2.2V49c-.1-4.8-.2-5.6-.4-5.8h-3.6v14.3l.5.1c.7.1 8.8-.2 9.7-.3a5 5 0 003.6-2.7c.3-.5.3-1 .3-2.5 0-1.8 0-1.9-.4-2.6-.5-.8-1-1.3-2.1-1.7l-.9-.5c0-.1.3-.4.7-.6 1.6-.8 2.2-2 2.2-4 0-1.3-.2-2.2-.9-3.1-.5-.7-2-1.4-3.5-1.6a89 89 0 00-9-.2" fill="#FFF"/></g></svg>
